PathFileType	4	(X/Y/Z)	G:\Shared drives\HPL_Drive\Nord Sprinting Study\Kristen_Nord_test\Trimmed_Nord000006.trc
DataRate	CameraRate	NumFrames	NumMarkers	Units	OrigDataRate	OrigDataStartFrame	OrigNumFrames
200.00	200.00	      4	52	mm	200.00	1022	      2043
Frame#	Time	C7			R_Shoulder			L_Shoulder			Sternum			R_humerus			R_elbow_med			R_elbow_lat			R_forearm			R_wrist_radius			R_wrist_ulna			L_humerus			L_elbow_med			L_elbow_lat			L_forearm			L_wrist_radius			L_wrist_ulna			r.ASIS			r.PSIS			r_IC			L.ASIS			L.PSIS			l_IC			r_thigh1			r_thigh2			r_thigh3			r_thigh4			r_thigh5			r_knee			r_mknee			r_shank_antsup			r_sh2			r_sh3			r_sh4			r_ankle			r_mankle			r_calc			r_5meta			r_toe			L_thigh1			L_thigh2			L_thigh3			L_thigh4			L_knee			L_mknee			L_shank_antsup			L_sh2			L_sh3			L_ankle			L_mankle			L_calc			L_5meta			L_toe			
		X1	Y1	Z1	X2	Y2	Z2	X3	Y3	Z3	X4	Y4	Z4	X5	Y5	Z5	X6	Y6	Z6	X7	Y7	Z7	X8	Y8	Z8	X9	Y9	Z9	X10	Y10	Z10	X11	Y11	Z11	X12	Y12	Z12	X13	Y13	Z13	X14	Y14	Z14	X15	Y15	Z15	X16	Y16	Z16	X17	Y17	Z17	X18	Y18	Z18	X19	Y19	Z19	X20	Y20	Z20	X21	Y21	Z21	X22	Y22	Z22	X23	Y23	Z23	X24	Y24	Z24	X25	Y25	Z25	X26	Y26	Z26	X27	Y27	Z27	X28	Y28	Z28	X29	Y29	Z29	X30	Y30	Z30	X31	Y31	Z31	X32	Y32	Z32	X33	Y33	Z33	X34	Y34	Z34	X35	Y35	Z35	X36	Y36	Z36	X37	Y37	Z37	X38	Y38	Z38	X39	Y39	Z39	X40	Y40	Z40	X41	Y41	Z41	X42	Y42	Z42	X43	Y43	Z43	X44	Y44	Z44	X45	Y45	Z45	X46	Y46	Z46	X47	Y47	Z47	X48	Y48	Z48	X49	Y49	Z49	X50	Y50	Z50	X51	Y51	Z51	X52	Y52	Z52	

1022	5.105	1211.07996	633.21997	1227.18298	1329.34058	677.86182	1219.59644	1076.60950	675.63452	1234.15173	1201.11621	750.68158	1154.91858	1502.63342	635.53058	1195.59631	1631.35620	640.41522	1105.25952	1625.40186	584.61115	1160.81787	1634.80396	666.32184	1261.98511	1618.41785	766.11224	1325.69995	1658.52686	744.14856	1340.92676	879.26337	626.64624	1209.78845	765.55823	638.46277	1123.92273	767.15356	581.44305	1176.17749	797.14050	677.13599	1286.19299	837.30542	752.73401	1337.99902	787.60242	752.40424	1350.12390	1328.71692	607.11322	702.94391	1281.16125	482.89966	848.57733	1363.52991	588.51117	812.69818	1089.29248	592.90302	700.66766	1164.69043	477.94470	841.32239	1064.15222	578.68646	798.29602	1396.82373	475.25403	490.84656	1389.54358	425.99640	385.80890	1403.30371	371.35025	381.13519	1403.18323	378.82205	539.31433	1384.69275	330.84149	431.65240	1387.76855	346.11703	309.73785	1263.47473	333.01550	322.28708	1404.39014	209.13141	310.74335	1385.29175	91.54487	321.79401	1409.17957	213.83179	385.88083	1389.39490	102.87183	403.77255	1367.57410	-70.10476	377.01984	1290.81262	-51.98084	347.59821	1311.59338	-83.03007	438.20508	1367.17847	-165.53958	289.86624	1331.03333	-142.55023	237.23541	1019.47595	471.76724	491.90591	1022.59784	415.27283	363.35898	1024.50757	364.72400	546.52545	1030.17639	314.73242	418.44769	1011.83160	328.80008	326.22513	1140.82593	331.64441	307.44528	999.35620	214.73563	308.91321	995.82697	225.84717	399.97327	1007.93103	103.85513	407.08484	1024.56140	-74.07124	377.56097	1102.86658	-52.32511	353.58920	1072.68115	-77.16200	436.92532	1028.26099	-169.63321	282.37564	1072.47571	-149.44890	232.46654	
1023	5.110	1211.07434	633.63672	1227.05371	1329.32825	678.27362	1219.51135	1076.81604	675.78461	1233.66553	1201.11279	751.03412	1154.67969	1502.66626	635.74451	1195.32959	1631.33752	640.59692	1105.25684	1625.33093	584.88019	1160.78906	1634.86292	666.71674	1261.69702	1618.48462	766.49701	1325.43323	1658.61804	744.51318	1340.64673	879.24799	627.06354	1209.64709	765.95978	638.96381	1123.49475	767.17010	581.80701	1175.98096	797.11414	677.54883	1285.99158	837.30511	753.21448	1337.72571	787.57874	752.84918	1349.90234	1328.72742	607.17834	702.85986	1280.32727	483.05215	848.46875	1363.58533	588.63983	812.66168	1089.36182	592.95221	700.53699	1164.51257	477.98611	841.34497	1064.26233	578.81012	798.25098	1396.89453	475.20255	490.78430	1389.63135	425.99252	385.82535	1403.34888	371.28403	381.14444	1403.18713	378.81732	539.30109	1384.74268	330.81516	431.67557	1387.77563	346.07544	309.78296	1263.51404	332.95737	322.27090	1404.48340	209.12431	310.71072	1385.44312	91.51844	321.74765	1409.31323	213.83330	385.84058	1389.58643	102.82741	403.72345	1367.80859	-70.19592	377.01871	1291.03198	-52.05998	347.63919	1311.81702	-83.24934	438.27402	1367.51904	-165.50876	289.75385	1331.31262	-142.44870	237.11964	1019.49689	471.76309	491.90656	1022.63654	415.28857	363.38171	1024.58435	364.79263	546.59601	1030.21240	314.75385	418.49005	1011.84760	328.80658	326.28723	1140.85486	331.66040	307.47885	999.19995	214.77800	309.13446	995.77899	225.87854	399.97995	1007.84778	103.85775	407.08893	1024.42175	-74.00877	377.55698	1102.74146	-52.33946	353.54608	1072.58923	-77.13621	436.96481	1027.98682	-169.57578	282.34808	1072.24329	-149.44641	232.37053	
1024	5.115	1211.07800	634.02258	1226.96167	1329.32471	678.67200	1219.35876	1077.58899	676.07642	1233.63281	1201.12146	751.40656	1154.48535	1502.66467	636.10150	1195.19812	1631.29700	640.82330	1105.07605	1625.32739	585.17133	1160.57751	1634.89087	667.00970	1261.55151	1618.36707	766.82855	1325.27441	1658.38977	744.57922	1340.54797	879.28064	627.48694	1209.41089	766.00293	639.27051	1123.29736	767.14771	582.12787	1175.86157	797.11365	677.95892	1285.72803	837.22937	753.65723	1337.53503	787.53436	753.29431	1349.59058	1328.81091	607.24622	702.69348	1280.45496	483.21289	848.44757	1363.64111	588.78864	812.49500	1089.45105	593.05933	700.50507	1164.65820	478.09692	841.26398	1064.35315	578.92743	798.19702	1396.99390	475.13141	490.74863	1389.63354	425.89075	385.76871	1403.39856	371.21756	381.14658	1403.22778	378.83295	539.29755	1384.78662	330.72598	431.69540	1387.81836	346.04105	309.78799	1263.53833	332.85226	322.25430	1404.54761	209.10956	310.67517	1385.54346	91.48540	321.72339	1409.44080	213.76097	385.79160	1389.75024	102.70625	403.69373	1368.05591	-70.26332	377.04358	1291.27869	-52.14620	347.58722	1312.07581	-83.41683	438.24448	1367.45728	-165.43155	289.54861	1331.91223	-142.12425	237.29045	1019.57593	471.80905	491.95538	1022.72418	415.33917	363.37408	1024.62634	364.81122	546.64893	1030.23584	314.75269	418.50824	1011.84863	328.85349	326.27042	1140.83215	331.62494	307.49261	999.24365	214.82014	309.03214	995.76239	225.91714	400.02667	1007.79126	103.93546	407.10297	1024.30896	-73.97024	377.56561	1102.57227	-52.33383	353.56058	1072.40674	-77.15385	437.00821	1027.70142	-169.52139	282.37677	1075.29639	-149.58725	230.42632	
1025	5.120	1211.11865	634.39246	1226.85254	1329.35266	679.03229	1219.23450	1076.77930	676.87262	1233.50720	1201.13513	751.76215	1154.31396	1502.60400	636.57135	1195.20068	1631.29163	641.09399	1104.90515	1625.29504	585.47321	1160.45068	1634.89087	667.32074	1261.41479	1618.45068	767.16956	1325.05750	1658.66333	745.18988	1340.22827	879.23352	627.84259	1209.30249	766.04175	639.58087	1123.06641	767.19879	582.46033	1175.65442	797.10016	678.37640	1285.46924	837.21759	754.07056	1337.25635	787.49286	753.75153	1349.22852	1328.78210	607.33972	702.72064	1281.48975	483.37125	848.49152	1363.55042	589.03241	812.29022	1089.46838	593.02856	700.43707	1164.94141	478.32346	841.40442	1064.44128	579.00513	798.18671	1397.06494	475.17841	490.67825	1389.77576	425.73578	385.75082	1403.45764	371.16730	381.10989	1403.26013	378.82578	539.28021	1384.87671	330.45920	431.65665	1387.82971	346.00659	309.76358	1263.56677	332.77240	322.21820	1404.63892	209.08803	310.60770	1385.68347	91.45712	321.68835	1409.56506	213.76735	385.74683	1389.94690	102.70242	403.66666	1368.26794	-70.32616	377.08093	1291.54956	-52.25298	347.49933	1312.30371	-83.58395	438.27469	1367.78735	-165.37181	289.46579	1331.79846	-142.31931	237.05125	1019.64893	471.85562	491.92615	1022.74969	415.36148	363.44916	1025.20740	363.82941	546.45258	1030.24695	314.83170	418.55240	1011.83533	328.90500	326.27371	1140.85376	331.66452	307.48755	999.21558	214.88350	308.89401	995.72565	225.96379	400.01102	1007.74176	103.91508	407.15369	1024.17297	-73.92435	377.60333	1102.43799	-52.31644	353.54764	1072.35413	-77.13593	436.94418	1027.44312	-169.43704	282.35010	1070.96301	-149.81851	233.34016	
